<svg xmlns="http://www.w3.org/2000/svg" width="32" height="32" fill="none">
  <style>
    rect:nth-child(1),rect:nth-child(2){fill:#5762d5}@media (prefers-color-scheme:dark){path,rect:nth-child(1),rect:nth-child(2){fill:#c4c5cb}}
  </style>
  <g clip-path="url(#clip0_31940_361012)">
    <path fill="#5762D5" d="M7.641 29.281H25.55V32H7.641zM7.641 27.408H25.55v1.258H7.641z"/>
    <path fill="#5762D5" d="M30.924 7.694c-.594 0-1.076.472-1.076 1.053 0 .433.267.803.647.966l-6.003 10.972h-1.336l1.772-15.333c.671-.01 1.212-.545 1.212-1.205a1.22 1.22 0 0 0-1.232-1.207c-.68 0-1.232.54-1.232 1.207 0 .578.415 1.06.969 1.178l-4.717 15.258h-1.32L16.523 2.97c.738-.106 1.306-.722 1.306-1.474C17.828.67 17.144 0 16.301 0c-.843 0-1.527.67-1.527 1.496 0 .76.582 1.382 1.332 1.476l-1.836 17.61h-1.318L8.082 5.277c.471-.17.809-.609.809-1.129A1.22 1.22 0 0 0 7.659 2.94c-.68 0-1.232.54-1.232 1.207a1.22 1.22 0 0 0 1.232 1.207c.087 0 .172-.01.254-.026l1.707 15.56H8.266L1.542 9.694c.36-.17.61-.528.61-.946 0-.581-.482-1.053-1.076-1.053C.482 7.694 0 8.166 0 8.747a1.065 1.065 0 0 0 1.237 1.038L7.641 26.6h17.91l5.213-16.814c.053.007.105.015.16.015.594 0 1.076-.472 1.076-1.054 0-.581-.482-1.053-1.076-1.053Z" style="fill:#5762d5"/>
  </g>
  <defs>
    <clipPath id="clip0_31940_361012">
      <path fill="#fff" d="M0 0h32v32H0z"/>
    </clipPath>
  </defs>
</svg>
